<svg viewBox="0 0 1033.452 1052.688" xmlns="http://www.w3.org/2000/svg"><path d="M894.818 1045.333H138.633V289.148H451.64l85.97 171.942h357.207zM206.15 977.816h621.152v-449.21h-331.46L409.87 356.664H206.15zm827.302 67.517H0v-67.516h1033.452zM387.545 701h-85.97v-67.517h85.97zm0-172.393h-85.97V461.09h85.97zm0 344.334h-85.97v-67.515h85.97zm172.392 0h-86.42v-67.515h86.42zm171.942 0h-85.972v-67.515h85.97zM559.936 701h-86.42v-67.517h86.42zm171.942 0h-85.972v-67.517h85.97zM292.12 322.906h-67.515V21.333h67.516zm516.727 129.18H741.33V107.305h67.517zm-258.363 0h-67.516V21.334h67.516zm-33.758-267.814H172.392v-67.516h344.334zm344.334 129.18H516.726V245.94H861.06z"/></svg>