<svg fill="none" height="24" viewBox="0 0 24 24" width="24" xmlns="http://www.w3.org/2000/svg"><g clip-rule="evenodd" fill="#1c274d" fill-rule="evenodd"><path d="m11.9426 1.25h.1148c2.3084-.00001 4.1174-.00002 5.5289.18975 1.4447.19424 2.5848.59958 3.4796 1.49439s1.3001 2.03483 1.4944 3.47957c.1897 1.41148.1897 3.22052.1897 5.52889v.1148c0 2.3084 0 4.1174-.1897 5.5289-.1943 1.4447-.5996 2.5848-1.4944 3.4796s-2.0349 1.3001-3.4796 1.4944c-1.4115.1897-3.2205.1897-5.5289.1897h-.1148c-2.30837 0-4.11741 0-5.52889-.1897-1.44474-.1943-2.58476-.5996-3.47957-1.4944s-1.30015-2.0349-1.49439-3.4796c-.18977-1.4115-.18976-3.2205-.18975-5.5289v-.1148c-.00001-2.30837-.00002-4.11741.18975-5.52889.19424-1.44474.59958-2.58476 1.49439-3.47957s2.03483-1.30015 3.47957-1.49439c1.41148-.18977 3.22052-.18976 5.52889-.18975zm-5.32902 1.67637c-1.27841.17188-2.04913.49877-2.61878 1.06843-.56966.56965-.89655 1.34037-1.06843 2.61878-.17478 1.29998-.17637 3.0082-.17637 5.38642 0 2.3782.00159 4.0864.17637 5.3864.17188 1.2784.49877 2.0491 1.06843 2.6188.56965.5697 1.34037.8966 2.61878 1.0684 1.29998.1748 3.0082.1764 5.38642.1764 2.3782 0 4.0864-.0016 5.3864-.1764 1.2784-.1718 2.0491-.4987 2.6188-1.0684s.8966-1.3404 1.0684-2.6188c.1748-1.3.1764-3.0082.1764-5.3864 0-2.37822-.0016-4.08644-.1764-5.38642-.1718-1.27841-.4987-2.04913-1.0684-2.61878-.5697-.56966-1.3404-.89655-2.6188-1.06843-1.3-.17478-3.0082-.17637-5.3864-.17637-2.37822 0-4.08644.00159-5.38642.17637z"/><path d="m8 5.74998c.41421 0 .75.33578.75.75v1.25001h1.25c.4142 0 .75.33579.75.75 0 .41422-.3358.75-.75.75h-1.25v1.25001c0 .4142-.33579.75-.75.75s-.75-.3358-.75-.75v-1.25001h-1.25c-.41421 0-.75-.33578-.75-.75 0-.41421.33579-.75.75-.75h1.25v-1.25001c0-.41422.33579-.75.75-.75zm5.25 2.75c0-.41422.3358-.75.75-.75h4c.4142 0 .75.33578.75.75 0 .41421-.3358.75-.75.75h-4c-.4142 0-.75-.33579-.75-.75zm0 6.00002c0-.4142.3358-.75.75-.75h4c.4142 0 .75.3358.75.75s-.3358.75-.75.75h-4c-.4142 0-.75-.3358-.75-.75zm-7.28033-.5303c.29289-.2929.76777-.2929 1.06066 0l.96968.9696.96966-.9696c.29289-.2929.76777-.2929 1.06063 0 .2929.2929.2929.7677 0 1.0606l-.96963.9697.96963.9697c.2929.2929.2929.7677 0 1.0606-.29287.2929-.76775.2929-1.06064 0l-.96965-.9696-.96967.9696c-.29289.2929-.76776.2929-1.06066 0-.29289-.2929-.29289-.7677 0-1.0606l.96967-.9697-.96968-.9697c-.29289-.2929-.29289-.7677 0-1.0606zm7.28033 3.5303c0-.4142.3358-.75.75-.75h4c.4142 0 .75.3358.75.75s-.3358.75-.75.75h-4c-.4142 0-.75-.3358-.75-.75z"/></g></svg>