<svg fill="none" height="48" viewBox="0 0 48 48" width="48" xmlns="http://www.w3.org/2000/svg"><path d="m0 0h48v48h-48z" fill="#fff" fill-opacity=".01"/><g clip-rule="evenodd" fill="#000" fill-rule="evenodd"><path d="m8.60917 36.9866c-3.28737-3.6083-5.28726-8.372-5.28726-13.5952 0-11.2643 9.29649-20.39572 20.76419-20.39572 11.4678 0 20.7643 9.13142 20.7643 20.39572 0 7.9647-4.6495 14.8602-11.4265 18.2178-4.1464 2.1618-8.8767 3.3865-13.8981 3.3865-6.1527 0-11.86841-1.8387-16.60832-4.9869 0 0 3.17858-.3467 5.69087-3.0214zm25.23053-3.5011c5.372-5.3718 5.372-14.0813 0-19.4533-2.491-2.4908-5.6996-3.8259-8.9603-4.0066v-.0008c-.0984-2.44645 1.2185-4.09864 1.2249-4.10669l-.0007.00013.0009-.00114c-3.7476.72394-7.3262 2.53699-10.2281 5.4389-2.2255 2.2254-3.8101 4.849-4.7548 7.6412.1375-.3643.2908-.7239.4598-1.0779-.1949.4974-.3711 1.0057-.5304 1.5257-1.57325 4.7759-.4628 10.2423 3.3354 14.0405 5.372 5.372 14.0815 5.372 19.4533 0z"/><path d="m17.1299 22.345v1.7089 1.1383c0 1.1361.921 2.0572 2.0573 2.0572 1.1362 0 2.0571-.9211 2.0571-2.0572v-1.14-1.7072c0-1.1361-.9209-2.0573-2.0571-2.0573-1.1363 0-2.0573.9212-2.0573 2.0573z"/><path d="m27.313 22.345v1.7089 1.1383c0 1.1361.9211 2.0572 2.0572 2.0572 1.1362 0 2.0573-.9211 2.0573-2.0572v-1.14-1.7072c0-1.1361-.9211-2.0573-2.0573-2.0573-1.1361 0-2.0572.9212-2.0572 2.0573z"/></g></svg>